<svg id="visual" viewBox="0 0 900 600" width="900" height="600" xmlns="http://www.w3.org/2000/svg" xmlns:xlink="http://www.w3.org/1999/xlink" version="1.1"><rect x="0" y="0" width="900" height="600" fill="#FFFFFF"></rect><path d="M555 600L552.7 588.8C550.3 577.7 545.7 555.3 544.2 533.2C542.7 511 544.3 489 548.3 466.8C552.3 444.7 558.7 422.3 549.8 400C541 377.7 517 355.3 502.5 333.2C488 311 483 289 484 266.8C485 244.7 492 222.3 494.3 200C496.7 177.7 494.3 155.3 489.2 133.2C484 111 476 89 484.2 66.8C492.3 44.7 516.7 22.3 528.8 11.2L541 0L900 0L900 11.2C900 22.3 900 44.7 900 66.8C900 89 900 111 900 133.2C900 155.3 900 177.7 900 200C900 222.3 900 244.7 900 266.8C900 289 900 311 900 333.2C900 355.3 900 377.7 900 400C900 422.3 900 444.7 900 466.8C900 489 900 511 900 533.2C900 555.3 900 577.7 900 588.8L900 600Z" fill="#ffb32e"></path><path d="M644 600L646.7 588.8C649.3 577.7 654.7 555.3 661 533.2C667.3 511 674.7 489 676.7 466.8C678.7 444.7 675.3 422.3 682 400C688.7 377.7 705.3 355.3 708 333.2C710.7 311 699.3 289 685.7 266.8C672 244.7 656 222.3 651.7 200C647.3 177.7 654.7 155.3 653.7 133.2C652.7 111 643.3 89 649.2 66.8C655 44.7 676 22.3 686.5 11.2L697 0L900 0L900 11.2C900 22.3 900 44.7 900 66.8C900 89 900 111 900 133.2C900 155.3 900 177.7 900 200C900 222.3 900 244.7 900 266.8C900 289 900 311 900 333.2C900 355.3 900 377.7 900 400C900 422.3 900 444.7 900 466.8C900 489 900 511 900 533.2C900 555.3 900 577.7 900 588.8L900 600Z" fill="#001647"></path></svg>